<svg version="1.1" id="Layer_1" xmlns="http://www.w3.org/2000/svg" xmlns:xlink="http://www.w3.org/1999/xlink" x="0px" y="0px"
	 width="100%" viewBox="0 0 1024 1024" enable-background="new 0 0 1024 1024" xml:space="preserve">
<path fill="#000000" opacity="1.000000" stroke="none" 
	d="
M751.974976,738.975586 
	C745.286743,741.601196 743.545837,746.391724 744.140930,753.441223 
	C744.964233,763.192749 744.615173,773.053833 742.403564,783.684509 
	C750.553284,784.132446 758.346497,785.345459 765.754150,782.807251 
	C773.001160,780.323914 779.776978,778.207947 787.859680,778.365051 
	C795.075439,778.505310 802.726624,775.350464 809.498718,771.620300 
	C810.541321,771.046082 811.464661,770.161377 811.281006,768.835876 
	C809.958008,759.288208 811.393311,749.681458 810.414429,740.072693 
	C809.644531,732.515137 810.508911,724.774170 810.869995,717.125122 
	C811.067749,712.938293 815.533203,713.001160 817.582153,710.582214 
	C820.012024,712.191650 819.844299,714.498108 819.914673,716.571045 
	C820.321838,728.571716 820.006165,740.532410 818.506531,752.481018 
	C817.618713,759.554993 817.865112,766.735962 818.970032,773.801147 
	C819.615356,777.927490 820.362366,782.021118 820.128296,786.206848 
	C819.975952,788.932983 820.801636,790.223694 823.808655,790.919189 
	C832.053223,792.826050 836.860046,799.697388 836.267639,807.817261 
	C835.716125,815.376343 829.738586,821.318054 821.485657,822.231140 
	C819.368958,822.465332 817.666260,823.053955 816.201782,824.595154 
	C802.164124,839.368103 784.331787,846.602234 764.737549,850.072144 
	C761.308533,850.679382 760.001526,852.130493 759.239197,855.298035 
	C757.367798,863.073608 751.216125,868.009705 743.573547,868.320496 
	C735.220825,868.660156 728.299622,864.281311 726.115662,856.316284 
	C724.955200,852.083923 722.979187,850.418030 718.740112,849.813171 
	C712.501099,848.923035 706.270020,847.608948 700.449707,844.978760 
	C698.776855,844.222717 697.263306,844.442139 695.654053,845.151062 
	C661.903320,860.018250 627.524475,846.387024 605.808472,819.270508 
	C578.573181,785.262268 574.198486,732.854797 595.665710,695.064758 
	C596.487549,693.618042 597.407715,692.226868 598.290710,690.815186 
	C602.987305,683.307068 603.044739,676.434937 597.726562,669.436096 
	C590.558472,660.002869 583.701416,650.381775 577.785828,640.114319 
	C576.445374,637.787720 575.026917,637.215759 572.544556,638.567993 
	C535.413269,658.794678 494.957520,669.139709 454.109131,678.306702 
	C449.725067,679.290588 445.347687,680.304382 440.969788,681.315552 
	C437.580383,682.098450 436.505981,683.960571 438.269623,687.145874 
	C447.962799,704.652344 451.726227,723.518738 451.351654,743.386719 
	C451.252441,748.648132 452.519043,749.378296 457.330963,747.400146 
	C476.243011,739.625732 493.541931,729.015442 510.201019,717.277954 
	C511.924744,716.063477 513.433167,714.392517 515.683838,714.107178 
	C516.855774,715.369080 515.883057,716.354431 515.384460,717.308960 
	C498.426117,749.770813 474.200378,775.236877 442.159393,793.114197 
	C439.427521,794.638428 437.495026,796.574890 435.885376,799.254944 
	C424.273804,818.588196 408.722260,833.417358 386.780975,840.279175 
	C354.858856,850.262329 321.163666,836.683167 303.405060,806.982117 
	C297.727509,797.486572 293.366943,787.457275 291.390717,776.484985 
	C291.038391,774.528992 290.602203,772.518982 289.780426,770.728577 
	C286.106659,762.724304 284.950134,754.206177 283.985901,745.565918 
	C282.801605,734.954285 282.604156,724.287781 281.708557,713.666992 
	C280.056732,694.077087 288.679108,678.870728 302.043091,665.719116 
	C306.312653,661.517395 310.790070,657.491821 315.848663,654.212952 
	C318.793732,652.303955 320.420135,649.456604 321.820526,646.388672 
	C323.427612,642.867859 322.037292,641.786438 318.566681,642.182373 
	C315.424469,642.540955 312.669739,645.002075 308.204498,644.260071 
	C312.278351,641.266724 315.891144,639.820312 319.591858,638.515320 
	C323.280731,637.214478 325.192688,634.902527 324.944244,630.632263 
	C324.596283,624.651428 324.977142,618.630798 324.722290,612.641052 
	C324.548370,608.554260 326.081116,606.984192 330.191803,606.954224 
	C334.420471,606.923462 334.548340,609.218018 334.455597,612.419434 
	C334.209595,620.912842 334.184082,629.412842 334.091766,637.910339 
	C334.075806,639.379639 333.801208,640.930908 334.977020,642.108398 
	C336.023987,642.820068 336.956848,642.362183 337.851471,641.930786 
	C364.384308,629.136414 392.530975,620.957153 420.707733,612.840332 
	C423.623627,612.000305 427.623657,612.512695 428.459198,607.979004 
	C428.544159,607.518005 430.205475,607.087463 431.137787,607.082153 
	C442.968811,607.014709 454.800293,607.021423 466.631653,607.037231 
	C467.291748,607.038086 467.940338,607.298462 468.205292,608.763428 
	C436.617615,618.031067 404.466553,625.713074 373.169159,636.965027 
	C375.464630,639.765991 372.907684,640.126648 371.283844,640.829102 
	C361.642181,644.999634 352.303619,649.777405 343.079346,654.788269 
	C342.517395,655.093567 341.974091,655.433289 341.643921,656.358459 
	C349.946594,653.558228 358.249237,650.758057 366.551880,647.957825 
	C366.753662,648.415100 366.955444,648.872375 367.157257,649.329651 
	C357.209503,655.235962 346.081268,659.000000 336.535034,665.875549 
	C345.226166,662.830994 353.917297,659.786438 362.608429,656.741882 
	C362.833740,657.215332 363.059052,657.688843 363.284332,658.162292 
	C353.753387,662.816284 344.222443,667.470337 334.691498,672.124329 
	C334.929718,672.730042 335.167938,673.335754 335.406128,673.941467 
	C343.448914,671.203674 351.491699,668.465942 359.534485,665.728149 
	C359.728210,666.146973 359.921936,666.565796 360.115662,666.984619 
	C351.810120,672.009155 341.858032,674.279297 334.290314,680.538086 
	C334.532166,681.118530 334.774048,681.699036 335.015900,682.279480 
	C344.069397,679.153809 353.122894,676.028198 362.176392,672.902527 
	C362.351318,673.278931 362.526245,673.655334 362.701172,674.031799 
	C353.732330,679.719971 343.089600,682.469910 334.640686,689.280396 
	C345.366699,687.179382 354.928772,681.391724 366.309875,679.491760 
	C365.260284,682.165771 363.183899,682.493103 361.524658,683.139832 
	C353.276184,686.354980 345.505646,690.557312 337.637848,694.556519 
	C335.953461,695.412720 333.713104,696.108154 334.991821,699.546936 
	C346.900238,694.988098 358.550598,689.711060 371.133423,687.067932 
	C359.617889,693.561218 347.220886,698.246277 335.123810,706.236328 
	C339.946381,705.785156 342.999054,703.884155 346.116272,702.494019 
	C382.998444,686.045715 421.966034,676.572327 461.136597,667.675049 
	C498.564941,659.173401 535.399475,648.824951 569.326843,630.193970 
	C573.622925,627.834778 577.627014,624.944031 582.770508,621.658142 
	C578.742493,622.016785 576.689148,624.792664 573.283020,623.921021 
	C574.331665,621.405823 576.829468,620.951599 578.495178,619.579956 
	C581.964294,616.723267 585.822754,614.239502 588.869629,610.991272 
	C594.729492,604.744141 601.502441,607.365784 609.055420,607.571838 
	C606.218445,613.360168 602.138184,616.823853 598.321289,620.406372 
	C595.965515,622.617493 595.607483,624.398743 597.293762,627.243713 
	C602.484924,636.001648 607.943909,644.559387 614.389343,652.454163 
	C621.111694,660.688110 627.320984,662.515625 637.338928,659.148499 
	C644.665771,656.685852 652.132507,654.984009 659.885437,655.696899 
	C664.650696,656.135010 666.124939,654.075928 665.946289,649.689697 
	C665.445007,637.378784 664.614502,625.080322 664.855286,612.739868 
	C664.932556,608.780029 666.186462,607.014282 670.363892,607.037964 
	C696.844971,607.188110 723.327026,607.186707 749.808716,607.241028 
	C750.770691,607.243042 751.861511,606.980164 752.600159,608.861084 
	C740.895264,614.127869 729.317139,619.699585 716.656555,623.742493 
	C715.417419,619.945679 712.624390,619.403931 709.498230,620.340027 
	C706.545532,621.224121 704.143738,622.514038 704.316895,626.545044 
	C704.461853,629.917480 701.401550,631.558960 694.770935,632.629639 
	C690.931885,625.629456 685.624084,625.555054 680.187012,634.010925 
	C676.650391,639.511108 672.444580,645.519287 674.050415,653.206116 
	C674.632385,655.991882 675.323242,657.698181 678.165283,658.540955 
	C689.707703,661.963318 699.792358,668.068298 708.709961,676.036011 
	C711.147400,678.213806 713.093872,678.194946 715.829773,676.951172 
	C727.352661,671.712769 738.946228,666.629272 750.532654,661.531616 
	C752.620178,660.613159 754.695923,659.442017 757.761353,659.937134 
	C757.231812,665.367126 760.530090,669.689209 761.723511,674.507263 
	C763.206055,680.491943 763.710022,687.148132 761.496399,693.151062 
	C759.440918,698.725220 756.094788,703.084412 748.820862,703.229675 
	C740.373657,703.398560 735.642334,710.815002 737.864075,719.040894 
	C738.992737,723.219666 740.246704,727.364624 741.370789,731.544556 
	C743.079285,737.897888 744.295654,738.856812 751.581116,739.014771 
	C751.996216,738.997925 751.974976,738.975586 751.974976,738.975586 
M713.737366,779.236572 
	C717.298645,768.646240 717.715820,757.812134 716.844116,746.746887 
	C716.277710,739.557495 714.876282,733.102722 709.597168,727.687012 
	C707.036865,725.060425 705.337891,724.764771 703.305481,727.689087 
	C700.342407,731.952393 696.488953,732.593994 691.893311,730.824890 
	C689.719299,729.988037 687.427917,729.426147 685.317078,728.461121 
	C680.473572,726.246704 678.542114,720.903564 682.013550,716.963013 
	C685.771973,712.696655 686.361816,706.348694 691.667297,703.240967 
	C692.893555,702.522705 692.926147,700.962769 692.618958,699.585938 
	C690.784851,691.364624 682.227661,679.165710 670.463135,681.956299 
	C668.854553,682.337830 666.648254,683.210815 665.881226,680.532349 
	C664.962402,677.323853 662.365417,677.394287 659.857300,677.341492 
	C641.666199,676.958313 628.107849,685.417236 618.673828,700.277710 
	C600.628601,728.702515 604.220886,771.273254 626.247131,797.620667 
	C633.473572,806.264771 641.703247,813.398254 652.919861,817.321533 
	C646.592957,803.331055 648.841736,797.448486 662.897461,790.643005 
	C664.903076,789.671936 664.792786,788.159729 664.856934,786.521606 
	C665.026001,782.202026 664.489868,777.850342 665.387756,773.565308 
	C665.889709,771.169861 666.799744,768.721130 669.661499,768.837952 
	C672.951172,768.972229 676.213013,769.789246 679.486938,770.309753 
	C674.545532,772.735352 674.422729,776.779968 674.694275,780.826721 
	C675.119446,787.166016 682.436279,781.815247 684.153503,786.364868 
	C683.492737,788.413513 681.857605,790.201050 681.955750,792.726746 
	C682.102234,796.495178 679.787720,798.067261 676.260498,798.141357 
	C672.929749,798.211365 669.596252,798.177490 666.267212,798.287903 
	C660.977112,798.463196 657.397827,801.741577 657.311462,806.388428 
	C657.226746,810.948853 660.877258,814.507629 666.104919,814.652100 
	C672.264893,814.822266 678.431091,814.760315 684.594299,814.823242 
	C686.666016,814.844360 688.494385,814.258972 690.200745,813.062195 
	C694.872620,809.785339 699.637085,806.280212 702.327393,801.349731 
	C704.827881,796.767273 710.457703,792.379700 705.498108,785.836365 
	C709.034302,784.576172 713.107361,784.584595 713.737366,779.236572 
M359.824188,746.664612 
	C377.951263,757.378174 397.438965,761.394775 418.354919,758.814331 
	C422.014648,758.362793 423.978638,756.947205 424.884003,753.266479 
	C427.143127,744.082275 427.322937,734.754883 426.548492,725.487915 
	C425.569580,713.774170 422.228333,702.660583 415.887695,692.564575 
	C414.124603,689.757324 412.180206,688.674500 408.875397,689.645691 
	C385.048615,696.648010 361.526581,704.446167 339.330170,715.776367 
	C333.032745,718.990967 332.302948,723.106750 337.190857,728.334900 
	C343.710541,735.308411 351.123413,741.213135 359.824188,746.664612 
M767.500000,821.263306 
	C755.027283,821.260010 742.554565,821.244568 730.081848,821.265991 
	C728.126770,821.269348 725.871399,820.700317 724.454407,822.508606 
	C719.653259,828.635376 713.871521,833.775146 707.512573,838.700256 
	C733.782104,851.391174 794.823608,840.775208 807.096191,821.263916 
	C793.970032,821.263916 781.235046,821.263916 767.500000,821.263306 
M771.500000,798.267822 
	C761.838013,798.257507 752.175964,798.232178 742.513977,798.250183 
	C740.723633,798.253540 738.554260,797.784790 737.541321,799.745300 
	C735.138306,804.396179 732.966614,809.166504 730.574707,814.152832 
	C731.774292,814.415894 732.397583,814.671631 733.020935,814.672119 
	C761.840149,814.692139 790.659485,814.744202 819.478333,814.643188 
	C825.049866,814.623657 828.814087,810.845215 828.662415,806.158997 
	C828.510864,801.479858 824.721924,798.300232 818.977417,798.281738 
	C803.485107,798.231934 787.992493,798.266846 771.500000,798.267822 
M600.361389,715.103333 
	C605.345642,697.219543 615.733154,683.960510 633.051819,676.603577 
	C615.091003,682.858765 602.002014,694.574524 596.491455,712.915527 
	C586.942322,744.698547 591.392334,774.826111 609.858032,802.613647 
	C619.097473,816.517273 630.749512,827.656372 646.682068,833.664124 
	C651.440796,835.458557 656.324097,836.511719 661.515137,836.032104 
	C654.845154,832.945251 648.313965,829.832703 642.431885,825.449280 
	C628.595581,815.138489 619.550476,801.043152 610.806152,786.566345 
	C597.423645,764.410828 594.787903,740.789001 600.361389,715.103333 
M719.155945,702.294739 
	C708.557373,675.469543 682.863770,665.021851 662.989502,668.255249 
	C666.495728,669.724304 669.708557,671.007324 672.870544,672.405334 
	C696.456909,682.833984 713.876343,698.783447 719.978516,724.925171 
	C722.659546,736.410950 723.375122,748.129639 724.500671,759.812256 
	C726.781982,740.525452 727.436890,721.384094 719.155945,702.294739 
M402.609711,811.184937 
	C396.234863,815.565125 389.134430,818.455933 381.924835,821.061768 
	C374.904114,823.599243 367.444183,824.575012 359.413055,826.502625 
	C372.963745,831.620361 391.238159,829.633850 402.943634,821.588623 
	C423.889313,807.192688 433.270142,786.067627 436.811890,761.738403 
	C436.907501,761.081543 437.298370,760.036194 435.773895,759.662109 
	C434.307404,763.708984 432.890442,767.767578 431.370544,771.787292 
	C425.497803,787.319275 417.579254,801.385132 402.609711,811.184937 
M309.676361,763.545105 
	C308.078369,755.232056 309.259003,746.616333 307.969391,737.038086 
	C303.409088,741.370911 299.410248,744.073181 299.366547,749.409973 
	C299.213806,768.059570 303.838440,785.312195 314.688477,800.658081 
	C319.000305,806.756592 324.382202,810.915833 329.712891,812.665222 
	C317.386200,798.843445 311.944061,782.305420 309.676361,763.545105 
M449.454742,765.380798 
	C447.855896,770.092163 446.018951,774.748840 445.339020,780.925171 
	C460.397217,770.522156 473.961121,760.409363 484.835785,745.891663 
	C483.295746,745.976196 482.776062,745.865234 482.394653,746.045959 
	C472.486908,750.743591 462.626678,755.541626 452.401520,759.538574 
	C450.136169,760.424133 449.101654,762.227905 449.454742,765.380798 
M742.498535,849.247925 
	C741.010986,849.246155 739.519043,849.171997 738.037109,849.262268 
	C736.464172,849.358154 734.479858,848.682922 733.607544,850.584351 
	C732.720093,852.518799 733.329590,854.454590 734.415222,856.228455 
	C737.871887,861.876038 745.733826,862.244629 750.004883,856.965820 
	C751.437805,855.194885 752.282166,853.166565 751.557190,850.984375 
	C750.697449,848.396667 748.255554,849.465393 746.417542,849.259766 
	C745.438416,849.150146 744.436401,849.245117 742.498535,849.247925 
M376.937744,781.593323 
	C386.948273,784.244934 397.115845,785.465088 407.471069,784.867737 
	C409.538086,784.748596 411.896240,785.015198 412.790039,781.802673 
	C395.267151,783.288757 378.254211,781.891418 361.639679,776.430298 
	C366.478912,778.072754 371.318115,779.715210 376.937744,781.593323 
M591.972046,642.498169 
	C593.642273,644.659485 595.403870,646.708923 598.968628,648.320374 
	C595.036011,641.452942 591.639526,635.521851 588.283936,629.662048 
	C585.340088,630.587280 585.297546,632.136169 586.467651,634.009827 
	C588.130188,636.672058 589.844116,639.302185 591.972046,642.498169 
M410.473267,777.606934 
	C412.300842,777.361206 414.478638,778.334229 416.343018,775.308044 
	C406.402435,775.308044 397.037567,775.308044 387.320435,775.308044 
	C394.709991,778.342102 402.365753,776.207397 410.473267,777.606934 
M402.916107,790.932556 
	C404.101990,790.668457 405.569885,791.419617 407.078430,789.100891 
	C396.396301,790.549255 386.484589,789.143982 376.546112,788.146790 
	C384.833496,791.149719 393.458221,790.915894 402.916107,790.932556 
M346.491058,808.058472 
	C351.701935,810.560303 357.022430,812.594299 362.910645,812.235229 
	C357.118408,810.837036 351.489105,808.991150 345.954224,806.823425 
	C345.946045,806.820251 345.726776,807.242126 345.693115,807.477905 
	C345.680878,807.563843 345.922821,807.685974 346.491058,808.058472 
M373.918030,770.837952 
	C371.775116,770.125061 369.632202,769.412170 367.489288,768.699341 
	C372.433563,771.690186 377.612213,773.881958 383.595825,773.497559 
	C380.618927,772.681213 377.642029,771.864868 373.918030,770.837952 
z"/>
<path fill="#000000" opacity="1.000000" stroke="none" 
	d="
M578.209473,408.286133 
	C575.661194,409.742432 573.764343,411.721619 570.569824,411.622955 
	C575.237000,407.380920 579.797180,403.107208 583.604797,398.102203 
	C579.755798,400.274078 576.347656,403.141479 571.881714,404.360901 
	C575.204956,399.395233 580.675537,396.333466 584.046326,390.363922 
	C578.112000,393.284668 573.253723,396.700165 567.199707,397.602356 
	C572.835327,392.819489 579.541992,389.378510 584.403809,382.169006 
	C578.011902,385.566864 573.157776,389.702362 566.581787,390.439941 
	C572.888062,384.957184 580.362915,380.767548 585.432556,372.084290 
	C576.247620,379.197784 567.787292,385.048981 558.531494,389.621521 
	C539.568909,398.989380 520.602844,408.350098 501.645966,417.729553 
	C499.800812,418.642548 497.856781,418.971100 495.836243,418.957245 
	C492.004761,418.931030 488.167877,418.993866 484.343262,418.810303 
	C474.312622,418.328857 474.272949,418.293579 472.054810,408.591278 
	C469.162659,395.940826 466.271393,383.289185 463.536194,370.604309 
	C462.605133,366.286316 461.203644,364.118134 455.885651,364.769440 
	C441.347656,366.549988 428.283630,355.202484 425.747009,339.427673 
	C425.056061,335.130615 425.126373,330.897156 425.566437,326.541534 
	C426.471832,317.580170 426.375519,308.530609 425.628387,299.573822 
	C424.549286,286.636780 429.700684,276.483887 438.868073,268.125305 
	C442.148254,265.134552 442.702423,262.350586 442.066254,258.088593 
	C437.498871,227.488220 433.023834,196.868179 430.616516,165.995346 
	C429.931091,157.204880 429.154938,148.421402 428.404724,139.636078 
	C428.202850,137.271530 427.811951,134.557709 430.642639,133.706650 
	C433.690369,132.790359 434.487335,135.608063 435.455963,137.679138 
	C452.126587,173.324448 466.377167,209.968216 478.791290,247.257965 
	C482.097565,257.189484 488.907135,259.817261 496.898163,262.506195 
	C499.881042,263.509918 501.480957,261.179443 503.140564,259.350800 
	C513.778564,247.629196 524.326538,235.825455 536.052429,225.147614 
	C543.830872,218.064407 551.845093,211.258453 561.072449,206.146744 
	C566.034851,203.397675 568.970459,199.612061 570.939148,194.285172 
	C578.907654,172.723801 587.709167,151.492798 597.493835,130.681152 
	C597.989563,129.626648 598.485107,128.568298 599.054321,127.552956 
	C599.841614,126.148483 600.998535,125.158707 602.695557,125.495216 
	C604.695068,125.891685 605.301514,127.478607 605.203735,129.277786 
	C604.914917,134.592880 604.671570,139.916443 604.156555,145.212006 
	C602.998169,157.122025 601.644653,169.013031 600.477783,180.922272 
	C600.275879,182.982590 599.673950,185.200943 601.323425,187.534286 
	C609.065613,185.391113 616.867798,183.086060 624.960022,182.223663 
	C639.479553,180.676315 653.870972,181.021423 667.971802,185.325653 
	C669.843445,185.896957 672.220093,186.068665 671.626648,188.997070 
	C671.112366,191.534546 671.142029,194.621902 667.420349,194.828049 
	C641.246948,196.277802 623.568359,212.293106 607.008362,230.142807 
	C603.844543,233.553055 601.239075,237.474686 598.189819,240.999237 
	C590.426758,249.972336 589.298462,261.180389 587.441711,272.165466 
	C586.222656,279.377747 585.053955,286.601440 583.647766,293.777893 
	C583.056152,296.796997 583.671692,298.791473 586.435669,300.431305 
	C601.204346,309.193573 605.927795,322.912689 604.985413,339.176727 
	C603.532166,364.257355 599.338806,389.103119 598.423523,414.228668 
	C598.296875,417.704071 596.835022,419.073425 593.582764,418.956146 
	C589.676086,418.815277 585.702576,419.426331 581.897644,418.426819 
	C581.671814,415.718353 584.070374,414.696014 584.355042,412.346863 
	C580.175842,413.804565 577.437012,417.941284 572.545959,417.866302 
	C576.241882,413.504059 581.223145,410.351013 584.853638,404.072540 
	C581.968323,405.905975 580.238464,407.005219 578.209473,408.286133 
M534.722290,290.763550 
	C530.462952,297.374481 524.601074,302.587006 519.362000,308.341217 
	C511.610565,316.854828 503.818146,325.331116 496.043182,333.823273 
	C510.346069,324.005768 521.392273,310.864716 533.208679,298.552734 
	C535.412842,296.256073 537.013428,292.713196 536.394409,288.367249 
	C537.872314,286.512573 538.726135,284.352783 539.497009,282.140472 
	C546.617798,261.704559 553.755005,241.274353 560.874329,220.837936 
	C561.363342,219.434067 561.747437,217.993652 562.445251,215.699081 
	C541.567688,229.899628 525.391785,247.341034 510.278320,265.887634 
	C516.168457,262.783722 520.115417,257.291809 526.395691,254.469742 
	C518.903320,262.869965 511.410919,271.270172 503.918549,279.670410 
	C513.356079,274.733826 519.317078,265.845734 527.534790,259.639862 
	C527.910095,260.019440 528.285339,260.399017 528.660645,260.778564 
	C517.436218,273.031403 506.211792,285.284210 494.987366,297.537048 
	C506.518219,288.651001 516.886597,278.542236 527.277344,268.459290 
	C527.732361,268.947845 528.187378,269.436401 528.642395,269.924957 
	C516.469666,283.208893 504.296906,296.492828 492.124176,309.776764 
	C504.442627,300.710144 514.451782,289.054840 526.289978,279.512177 
	C526.701721,279.929993 527.113403,280.347839 527.525146,280.765656 
	C516.523987,292.766815 505.522888,304.767975 494.521790,316.769104 
	C494.612244,316.851685 494.702698,316.934265 494.793152,317.016846 
	C505.714996,306.943726 516.636841,296.870605 527.558716,286.797485 
	C527.964172,287.200531 528.369568,287.603607 528.775024,288.006683 
	C517.337341,300.617615 505.899719,313.228516 494.462097,325.839447 
	C506.458405,315.463043 518.527588,305.229156 529.627502,293.943604 
	C531.156860,292.388641 532.805054,291.002289 534.722290,290.763550 
M565.330017,277.662537 
	C558.697815,314.106384 549.637817,350.024200 540.514465,385.928314 
	C541.372742,386.111633 542.231018,386.294952 543.089294,386.478271 
	C560.143677,323.208313 573.540833,259.168610 581.892456,194.032135 
	C560.504578,261.917694 539.116699,329.803284 517.603210,398.087524 
	C521.797913,398.344330 522.813049,396.460358 523.534119,394.346222 
	C524.339722,391.984406 525.010254,389.576721 525.748962,387.191864 
	C532.692444,364.775635 539.632202,342.358215 546.602112,319.950195 
	C546.903137,318.982208 546.723511,317.521820 549.243103,317.479492 
	C541.806396,343.064087 534.446899,368.383148 526.950134,394.174591 
	C531.915771,393.724823 532.909729,391.042755 533.830139,388.018738 
	C545.512634,349.637848 555.383179,310.792358 563.972046,271.609711 
	C564.725159,268.174164 564.984802,264.494507 566.822266,261.364746 
	C567.248657,261.443268 567.675110,261.521790 568.101501,261.600311 
	C567.215576,266.671082 566.329590,271.741852 565.330017,277.662537 
M442.625702,201.008575 
	C444.182617,211.689667 445.622894,222.389328 447.320770,233.047958 
	C450.824005,255.039963 454.455383,277.011627 458.066803,298.986267 
	C458.349945,300.708984 458.316772,303.331116 460.785706,302.948090 
	C463.625977,302.507416 462.643158,299.864166 462.319092,298.014709 
	C458.300293,275.079895 454.096283,252.176590 450.247589,229.213608 
	C449.064301,222.153595 447.197021,215.134155 447.738312,207.795166 
	C451.590424,222.364700 454.825562,237.050903 457.973145,251.755859 
	C461.153381,266.613312 464.246826,281.489349 467.409302,296.504517 
	C471.198578,295.272461 470.345764,293.183289 469.936096,291.278748 
	C467.733582,281.039703 465.517090,270.803680 463.291840,260.569580 
	C463.070862,259.553406 462.571198,258.525940 463.870422,257.180450 
	C468.100800,268.520935 469.297272,280.277557 473.827423,291.770172 
	C476.596375,286.584259 445.770935,175.455994 437.083740,157.472061 
	C439.000000,172.627045 440.738678,186.377869 442.625702,201.008575 
M570.153198,330.844971 
	C578.251892,286.875671 585.697449,242.810379 589.651428,198.224197 
	C579.520447,259.554413 568.493042,320.703033 552.507446,382.086487 
	C557.502869,380.590698 560.075317,379.375549 560.833374,375.619080 
	C563.792358,360.955505 566.894226,346.320831 570.153198,330.844971 
M607.402588,216.904480 
	C617.125854,206.661606 628.279663,198.266174 642.031311,191.576431 
	C640.014709,190.810745 639.433594,190.409851 638.840698,190.391464 
	C625.871399,189.989563 613.456543,192.651428 601.401672,197.256134 
	C599.933350,197.817001 598.672180,198.707581 598.432007,200.334717 
	C596.964172,210.278625 595.565369,220.232697 593.946350,231.563263 
	C598.917358,226.134811 602.912354,221.772110 607.402588,216.904480 
M481.819000,398.607330 
	C485.913574,382.869446 489.966949,367.122925 493.214050,350.498627 
	C488.930298,351.364044 486.992249,353.668091 484.447021,354.760651 
	C479.804962,356.753265 478.927551,359.869781 479.825928,364.781250 
	C480.739594,369.776001 482.039642,374.970490 480.974976,380.494812 
	C478.933807,379.222504 478.947479,377.474854 478.549408,375.924438 
	C477.515381,371.896790 476.531769,367.855194 475.422485,363.848419 
	C475.001404,362.327545 474.109863,360.955109 472.216400,361.510925 
	C470.374908,362.051514 470.960999,363.636810 471.234924,364.873871 
	C473.641724,375.741852 476.055328,386.608856 478.595154,397.446075 
	C478.867828,398.609589 479.238007,400.834106 481.819000,398.607330 
M506.786591,383.397949 
	C510.247345,372.293701 513.707886,361.189392 517.169067,350.085266 
	C517.849609,347.901825 518.349121,345.496185 515.562866,344.659180 
	C512.572815,343.760986 512.683350,346.555267 512.126648,348.342041 
	C506.341949,366.908447 500.536377,385.468475 494.829346,404.058716 
	C494.176666,406.184753 492.863098,408.300934 493.765564,411.009033 
	C496.987549,410.712433 498.856140,409.190582 499.779266,406.070770 
	C501.947723,398.741974 504.304626,391.468964 506.786591,383.397949 
M500.100220,347.051025 
	C501.175232,349.815582 500.889160,352.474640 499.999847,355.298431 
	C497.803497,362.272736 495.835693,369.320526 493.857361,376.361633 
	C491.554535,384.557770 489.338287,392.778198 487.084442,400.988098 
	C494.539734,385.096375 500.042542,368.577576 505.338379,351.988281 
	C506.164581,349.400238 504.691803,347.135162 503.588623,344.913025 
	C503.132721,343.994659 502.379059,343.224854 501.206268,343.575409 
	C499.789917,343.998779 499.619995,345.107117 500.100220,347.051025 
M464.639008,225.759949 
	C463.056549,220.833267 461.474060,215.906570 459.891602,210.979889 
	C462.711517,226.529541 479.298584,279.162323 482.798737,281.523041 
	C476.811554,263.191772 470.824371,244.860489 464.639008,225.759949 
z"/>
<path fill="#000000" opacity="1.000000" stroke="none" 
	d="
M289.981506,814.700562 
	C293.144135,814.702026 295.817413,814.827148 298.475006,814.676147 
	C302.471069,814.449158 304.625336,816.322266 305.491791,820.063721 
	C303.711060,821.911011 301.599060,821.229492 299.711670,821.232544 
	C267.550018,821.284607 235.388229,821.281921 203.226471,821.291626 
	C201.726730,821.292053 200.226898,821.286133 198.727264,821.299805 
	C197.207718,821.313660 195.582306,821.286987 194.910385,823.004944 
	C194.104706,825.064941 195.746796,826.084656 197.045456,827.032654 
	C204.933075,832.790222 213.607132,837.102356 223.035477,839.496460 
	C253.643738,847.268860 283.436554,846.071899 311.621521,830.320740 
	C315.952881,827.900085 317.525696,830.891296 319.669556,833.337585 
	C318.431519,836.020081 315.953583,836.891113 313.829071,838.083923 
	C303.281830,844.005310 292.020782,848.023804 280.113129,850.106567 
	C276.596985,850.721619 274.732147,852.140991 273.781891,855.878906 
	C271.867645,863.408813 265.570282,868.060547 258.147400,868.348450 
	C249.769226,868.673401 243.498734,864.856750 240.897736,856.814819 
	C239.444550,852.321655 236.955597,850.562927 232.520676,849.743408 
	C213.307083,846.192810 195.751434,839.138672 182.015656,824.527954 
	C180.576996,822.997498 178.704529,822.550537 176.693863,822.096252 
	C169.474854,820.464905 164.769501,814.833069 163.949982,807.219482 
	C163.299530,801.176575 167.157898,794.136719 173.695587,791.820801 
	C178.919296,789.970398 179.767792,786.875183 179.757690,782.016479 
	C179.641434,726.191956 179.693420,670.367065 179.706207,614.542236 
	C179.707947,606.986816 179.920456,606.756897 187.616501,607.081299 
	C191.072861,607.226929 194.537003,607.491211 198.263672,608.732483 
	C196.990128,612.003601 193.609604,613.110352 192.198303,615.922424 
	C188.741226,622.810730 188.420868,629.628113 191.874008,636.550354 
	C192.688004,638.182129 194.130646,639.897156 192.107407,641.424438 
	C189.279434,643.559082 189.275711,646.436035 189.287582,649.493225 
	C189.336746,662.157776 189.279068,674.822754 189.339645,687.487244 
	C189.365585,692.912781 190.645309,693.722717 195.658478,691.675781 
	C201.979065,689.095032 208.271500,686.445435 214.588425,683.855713 
	C217.163300,682.800110 219.211960,683.139160 221.192337,685.498230 
	C222.751068,687.355042 224.963181,688.772095 227.101761,690.010193 
	C231.258835,692.416809 234.483734,695.621582 236.858658,699.784485 
	C239.724472,704.807739 243.609619,708.829346 248.774384,711.576416 
	C253.058517,713.855042 255.707001,717.367004 257.700684,721.888977 
	C260.252228,727.676208 262.125183,734.147583 268.405579,737.442871 
	C267.273407,740.432983 264.609802,741.007324 262.450989,741.968384 
	C240.084641,751.925293 217.667191,761.767334 195.270370,771.655945 
	C192.223785,773.001099 189.163162,774.079834 189.236328,778.534424 
	C189.299164,782.359619 190.552399,783.994080 194.449875,783.949097 
	C204.780151,783.829895 215.112686,783.900940 225.444321,783.904785 
	C239.942078,783.910217 254.439926,783.896484 268.937531,783.947693 
	C273.940918,783.965332 278.941803,784.247559 283.535248,781.627747 
	C285.237091,780.657104 286.699280,780.810730 287.418121,783.031738 
	C288.895203,787.595764 290.447052,792.135620 291.925079,796.556702 
	C289.850952,799.016602 287.348511,798.211853 285.150909,798.216492 
	C251.822891,798.286865 218.494705,798.285278 185.166565,798.303284 
	C183.500305,798.304199 181.819534,798.194519 180.170624,798.371033 
	C175.858917,798.832642 172.872849,801.179382 172.433319,805.523193 
	C171.993683,809.868042 174.473343,812.848938 178.587448,814.060486 
	C180.611160,814.656372 182.856476,814.656677 185.001831,814.659058 
	C219.829559,814.698364 254.657333,814.694641 289.981506,814.700562 
M262.600372,849.353882 
	C259.286926,849.337219 255.973419,849.299988 252.660080,849.312439 
	C250.954529,849.318848 249.165863,849.490662 248.583832,851.432251 
	C247.557190,854.857056 249.459717,857.240051 251.983414,859.026978 
	C255.689865,861.651245 259.537323,861.342590 262.954956,858.454468 
	C265.127594,856.618469 267.077179,854.355835 265.698730,851.164246 
	C265.371948,850.407776 264.182770,850.023743 262.600372,849.353882 
z"/>
<path fill="#000000" opacity="1.000000" stroke="none" 
	d="
M660.459534,413.289001 
	C657.994324,415.102753 657.586060,418.629944 653.882019,418.607941 
	C650.453613,418.587555 649.207825,417.603790 650.498169,414.151978 
	C652.205139,409.585785 655.003906,407.189606 663.973206,403.102997 
	C646.011047,357.196472 654.366943,318.104767 696.032471,289.637848 
	C724.448120,270.223541 765.343750,272.660461 792.466614,292.965973 
	C803.575623,301.282715 812.481262,311.551605 818.806030,323.914551 
	C825.133118,336.282166 828.089050,349.571411 828.182617,363.401489 
	C828.276184,377.230865 824.657227,390.319885 818.515259,403.267639 
	C825.125183,403.782532 830.393127,405.987122 833.755737,411.233490 
	C835.066956,413.279297 837.724976,416.054108 834.807739,418.138214 
	C832.145569,420.040161 829.274353,419.015320 827.408264,415.654541 
	C825.663025,412.511505 822.452942,411.379639 818.892578,411.379425 
	C768.236328,411.376160 717.580017,411.374725 666.923767,411.360168 
	C664.697571,411.359528 662.632202,411.821472 660.459534,413.289001 
M814.447266,392.954895 
	C819.000000,381.325165 820.832458,369.405731 819.891907,356.828003 
	C816.500854,311.482178 774.638123,278.024658 729.771606,285.146301 
	C676.552246,293.593719 647.473877,349.501648 670.893494,398.063629 
	C673.016907,402.466675 675.627380,404.008362 680.466492,403.984039 
	C719.769043,403.786469 759.076965,403.534058 798.372925,404.064545 
	C806.981506,404.180756 811.878174,401.680054 814.447266,392.954895 
z"/>
<path fill="#000000" opacity="1.000000" stroke="none" 
	d="
M179.571991,322.665588 
	C199.584610,285.498352 244.618118,267.416260 282.599060,280.641357 
	C307.838806,289.429962 326.057678,305.746918 336.176910,330.350647 
	C346.182312,354.677612 344.836151,379.078522 333.319366,402.788605 
	C346.074219,406.540863 349.844330,409.981873 350.015808,417.862579 
	C346.639374,418.871155 343.932648,418.987762 341.739258,415.145905 
	C339.729065,411.624878 335.849487,411.310364 332.015778,411.318909 
	C305.183746,411.378876 278.351562,411.358063 251.519424,411.363922 
	C228.853760,411.368835 206.187958,411.420044 183.522568,411.342926 
	C178.870483,411.327118 174.989471,412.353851 172.480042,416.657043 
	C170.780930,419.570679 167.785706,419.652802 165.515869,418.253967 
	C163.088440,416.758026 164.990372,414.331329 165.871674,412.492889 
	C168.368530,407.284454 173.233246,405.043518 179.015121,402.933136 
	C166.461807,376.154694 166.369431,349.479492 179.571991,322.665588 
M234.707870,287.249847 
	C186.680023,301.099884 163.294647,354.860168 186.048584,398.882568 
	C187.883987,402.433533 190.066025,403.915466 194.170486,403.902466 
	C235.465378,403.771637 276.761108,403.772064 318.055847,403.931335 
	C322.377441,403.947998 324.676392,402.348785 326.559387,398.648804 
	C333.731537,384.556152 336.333862,369.581787 334.472931,354.066559 
	C328.676208,305.737244 282.625488,274.712524 234.707870,287.249847 
z"/>
<path fill="#000000" opacity="1.000000" stroke="none" 
	d="
M761.917480,535.196045 
	C769.078857,520.010498 776.088684,505.089142 783.101318,490.169128 
	C784.891724,486.359955 795.244080,483.530579 798.612488,485.942505 
	C799.836304,486.818756 799.989075,488.194000 799.991089,489.526886 
	C800.014526,505.353668 799.989075,521.180542 800.023743,537.007202 
	C800.030823,540.242004 798.439941,541.219177 795.360046,541.328491 
	C784.819214,541.702698 784.823792,541.794373 784.841614,531.334778 
	C784.846863,528.257141 784.842407,525.179443 784.138367,521.973999 
	C779.317078,531.618591 774.249878,541.151184 769.785889,550.958374 
	C767.779358,555.366821 764.708496,555.898682 760.607605,555.980408 
	C756.537292,556.061462 753.801575,555.077087 751.849792,551.084412 
	C746.846680,540.850098 741.402893,530.831177 735.315308,520.979675 
	C735.315308,531.428040 735.100281,541.882690 735.409790,552.321899 
	C735.555359,557.231201 733.750000,559.022949 729.051453,558.433777 
	C727.738586,558.269104 726.383545,558.317078 725.057251,558.406616 
	C721.885010,558.620728 720.605469,557.264221 720.617126,554.029236 
	C720.693970,532.704407 720.690308,511.379089 720.617676,490.054260 
	C720.606995,486.928436 721.635986,485.295044 724.932129,485.605377 
	C725.262085,485.636414 725.609253,485.657135 725.929626,485.591278 
	C732.693176,484.201721 736.350464,487.025360 739.148438,493.367157 
	C745.126099,506.916077 751.938904,520.099304 758.586975,533.343323 
	C759.020691,534.207581 758.571960,538.113342 761.917480,535.196045 
z"/>
<path fill="#000000" opacity="1.000000" stroke="none" 
	d="
M433.516357,506.524780 
	C439.058472,514.438721 444.390289,522.059814 449.815002,529.813721 
	C451.495300,528.167786 450.863251,526.412231 450.874146,524.870728 
	C450.953217,513.705627 451.058105,502.537903 450.886810,491.375153 
	C450.822418,487.178070 452.067169,485.324677 456.578674,485.513153 
	C465.908325,485.902893 466.200500,483.118500 466.174103,495.241394 
	C466.132751,514.239563 466.068054,533.238708 466.237671,552.235535 
	C466.277985,556.749329 465.189209,558.345337 460.178131,558.834045 
	C453.419220,559.493164 449.895538,556.801514 446.439514,551.584534 
	C438.080780,538.966858 429.195587,526.697998 419.261353,514.482117 
	C419.261353,520.978455 419.361725,527.477173 419.208191,533.969849 
	C419.152679,536.316711 420.456696,539.759888 417.611786,540.715149 
	C413.718811,542.022278 409.367493,541.867310 405.336243,540.683655 
	C403.750763,540.218140 403.927612,538.200317 403.927429,536.714417 
	C403.925507,521.215942 403.975159,505.717407 403.939819,490.219055 
	C403.932129,486.852020 405.369080,485.835663 408.745117,485.498322 
	C415.681335,484.805145 420.795502,486.350677 424.212524,493.096466 
	C426.596466,497.802826 430.230438,501.875946 433.516357,506.524780 
z"/>
<path fill="#000000" opacity="1.000000" stroke="none" 
	d="
M484.042480,485.540924 
	C492.424072,485.949310 500.400848,485.129089 508.365173,486.528320 
	C530.888550,490.485321 539.170410,506.774963 536.793762,526.871033 
	C534.459595,546.607971 522.374939,557.008728 502.297241,558.238647 
	C496.653412,558.584351 490.977417,558.371033 485.320129,558.543579 
	C482.197052,558.638855 480.726715,557.451599 480.776123,554.191589 
	C480.884552,547.033691 480.862244,539.872681 480.805023,532.713745 
	C480.781342,529.750366 482.118744,528.420349 485.042206,528.591858 
	C485.539490,528.621033 486.040802,528.584045 486.540192,528.574951 
	C495.965942,528.402222 495.965912,528.402161 496.073608,537.916687 
	C496.140289,543.810486 496.557861,544.201904 502.376831,543.824524 
	C513.491028,543.103699 520.952576,536.221191 521.717651,525.984680 
	C522.797363,511.539581 517.581238,503.149445 505.825958,500.449707 
	C504.854431,500.226562 503.855835,500.124054 502.874481,499.940613 
	C496.884094,498.821045 496.174072,499.396362 496.088318,505.460968 
	C495.940002,515.949341 494.778412,516.860657 484.157654,515.393982 
	C481.888336,515.080627 480.879547,514.064636 480.873444,511.891815 
	C480.851959,504.233154 480.837158,496.574524 480.834991,488.915863 
	C480.834473,487.047546 481.437714,485.631927 484.042480,485.540924 
z"/>
<path fill="#000000" opacity="1.000000" stroke="none" 
	d="
M301.883423,514.886902 
	C304.360413,514.828430 306.373505,514.913696 308.348969,514.680420 
	C312.422211,514.199463 315.322418,512.170471 315.563232,507.793793 
	C315.789154,503.688049 313.358002,501.286102 309.566071,500.329132 
	C307.491547,499.805573 305.316742,499.503418 303.177979,499.446198 
	C298.352753,499.317108 293.518250,499.511871 288.694611,499.356018 
	C286.152557,499.273865 282.623840,500.646820 281.338989,497.959595 
	C279.783691,494.706757 280.449615,490.755157 281.029510,487.144775 
	C281.321228,485.328369 283.227814,485.220154 284.686951,485.209747 
	C293.836731,485.144470 303.018463,484.482758 312.119446,485.798676 
	C321.528931,487.159180 327.865417,492.779633 329.869934,501.090698 
	C332.193909,510.726257 329.307861,519.688354 321.548370,524.916199 
	C318.452728,527.001831 318.196167,528.860291 319.661438,531.879578 
	C322.640289,538.017700 325.484344,544.223267 328.270905,550.451599 
	C329.272949,552.691345 330.707764,554.817993 330.755096,557.392029 
	C322.683197,561.291321 316.171936,559.220154 312.599609,551.601440 
	C309.703064,545.423950 306.760468,539.262329 304.095825,532.984314 
	C302.821075,529.980957 300.831360,528.927612 297.835785,529.470947 
	C294.669220,530.045471 295.467255,532.639954 295.447723,534.671448 
	C295.386963,540.996338 295.225098,547.332092 295.518402,553.644226 
	C295.688721,557.309143 294.457642,558.703613 290.819458,558.898560 
	C281.049042,559.422302 280.700653,559.200684 280.700897,549.492920 
	C280.701141,539.835632 280.881927,530.173157 280.609894,520.523438 
	C280.484375,516.071167 282.133179,514.600586 286.420258,514.827637 
	C291.401398,515.091492 296.407318,514.887451 301.883423,514.886902 
z"/>
<path fill="#000000" opacity="1.000000" stroke="none" 
	d="
M621.042480,514.887085 
	C626.693787,514.863159 631.858765,514.982666 637.010864,514.777405 
	C642.122253,514.573730 645.044250,512.029480 645.227844,507.814362 
	C645.430420,503.162659 642.672668,500.715179 638.452881,499.958496 
	C631.366089,498.687683 624.178345,499.738800 617.049988,499.339508 
	C614.919739,499.220215 611.736145,500.525482 611.033081,497.468048 
	C610.229248,493.972107 609.952209,490.148132 611.350342,486.680450 
	C611.960815,485.166077 613.995056,485.608154 615.454834,485.605927 
	C623.277283,485.593994 631.103210,485.492615 638.921326,485.686798 
	C649.066040,485.938721 656.809021,491.444702 659.163513,499.760803 
	C662.305786,510.859314 659.116577,519.820068 649.911743,525.778809 
	C649.235657,526.216492 648.591248,526.703247 647.512024,527.462891 
	C652.011169,537.449463 656.469238,547.345032 661.089844,557.601440 
	C655.923462,558.929565 651.617065,558.424438 647.357544,558.258728 
	C644.927856,558.164124 644.378418,555.889465 643.550659,554.109497 
	C640.323669,547.170410 637.024414,540.262146 633.961731,533.250732 
	C632.725952,530.421509 631.066345,528.870361 627.885681,529.452698 
	C624.385376,530.093445 625.389709,532.907227 625.349548,535.040588 
	C625.230408,541.363281 625.200317,547.690674 625.308228,554.013306 
	C625.362854,557.215942 624.034790,558.334961 620.866089,558.462646 
	C610.665466,558.873779 610.670959,558.975403 610.666260,548.838806 
	C610.662109,539.851013 610.643433,530.863281 610.651794,521.875488 
	C610.658203,514.971497 610.672485,514.970642 617.554626,514.899048 
	C618.553223,514.888672 619.551941,514.891479 621.042480,514.887085 
z"/>
<path fill="#000000" opacity="1.000000" stroke="none" 
	d="
M390.207397,521.014648 
	C390.131927,529.034485 390.065338,529.111023 382.759216,529.137939 
	C376.934418,529.159424 371.108917,529.212158 365.285004,529.143982 
	C362.388184,529.110107 360.896790,530.291382 361.025208,533.267944 
	C361.032349,533.433594 361.013885,533.600525 361.002838,533.766602 
	C360.335785,543.813049 360.380890,543.862183 370.264923,543.840515 
	C370.764221,543.839417 371.263489,543.838379 371.762787,543.837769 
	C381.509918,543.825562 383.012146,545.794434 381.256470,555.722656 
	C380.831573,558.125671 379.385803,558.747253 377.452301,558.761047 
	C368.300903,558.826233 359.148682,558.834290 349.997101,558.788940 
	C346.920532,558.773682 345.679291,557.112061 345.688446,554.001404 
	C345.751740,532.532532 345.743408,511.063232 345.671600,489.594360 
	C345.661621,486.614044 346.859100,485.367340 349.788605,485.356689 
	C358.435577,485.325317 367.083862,485.276245 375.728333,485.085358 
	C379.639404,484.999023 381.777588,486.314636 381.301331,490.569641 
	C381.154175,491.884430 381.158417,493.243652 381.305939,494.558685 
	C381.711914,498.177338 380.406281,499.772675 376.556030,499.462952 
	C372.917877,499.170349 369.230713,499.537689 365.578979,499.347992 
	C362.044769,499.164398 360.920380,500.763092 360.938843,504.099854 
	C361.009705,516.892639 360.389221,514.490601 371.162750,514.697388 
	C375.488190,514.780396 379.832306,514.931519 384.139526,514.636902 
	C388.629608,514.329773 390.816406,515.873962 390.207397,521.014648 
z"/>
<path fill="#000000" opacity="1.000000" stroke="none" 
	d="
M699.065186,527.997559 
	C699.066406,532.488220 699.121765,536.480469 699.049988,540.470337 
	C699.000793,543.205200 699.830383,544.768677 702.931335,545.010254 
	C709.570190,545.527283 706.719666,550.775452 707.130798,554.234131 
	C707.575012,557.970825 705.015747,558.481995 701.996521,558.446655 
	C694.687622,558.361206 687.375854,558.333740 680.067749,558.445801 
	C676.890503,558.494446 675.555420,557.262939 675.625488,554.044739 
	C675.724609,549.495300 674.419800,544.487976 681.911987,544.496460 
	C684.441956,544.499329 683.713257,541.334045 683.720154,539.475830 
	C683.778809,523.677124 683.713379,507.877777 683.802551,492.079315 
	C683.814697,489.928894 682.662842,486.548340 685.586426,486.023926 
	C689.554565,485.312073 693.869873,484.159058 697.806824,486.023438 
	C699.635620,486.889404 699.049744,489.291779 699.053955,491.077576 
	C699.082703,503.217712 699.066772,515.357971 699.065186,527.997559 
z"/>
<path fill="#000000" opacity="1.000000" stroke="none" 
	d="
M509.161865,910.345520 
	C507.185455,914.744751 508.468781,917.742737 512.124695,919.998291 
	C515.524597,922.095947 519.059143,924.035339 522.204102,926.470825 
	C525.971924,929.388733 529.204468,933.014160 528.186768,938.294922 
	C527.146362,943.693665 523.245605,946.878418 518.342957,948.706909 
	C513.174072,950.634766 508.800507,948.216309 507.270874,942.504028 
	C512.911560,944.866089 517.400208,942.860779 521.280701,939.118835 
	C525.536987,935.014526 525.162170,932.228210 519.923828,929.532043 
	C515.893677,927.457764 512.095337,925.171814 508.965363,921.829224 
	C503.289673,915.768188 502.852203,909.038635 507.994080,902.455750 
	C511.319855,898.198120 515.441101,894.885681 520.444519,892.688660 
	C530.539124,888.256042 535.892822,891.001587 537.801941,901.830566 
	C541.295715,902.446655 542.936096,900.622314 543.643005,897.456665 
	C544.114380,895.345520 544.578064,893.229614 545.152649,891.145508 
	C545.526306,889.790527 546.253479,888.636536 547.951599,888.919495 
	C549.824524,889.231628 550.267395,890.568787 550.162231,892.243408 
	C550.029541,894.356995 548.680176,896.373779 549.918335,899.219849 
	C554.416565,897.984253 559.432190,899.064087 563.855530,896.257751 
	C565.409180,895.272095 567.057312,895.713745 568.616333,896.490601 
	C569.959839,897.160034 570.735474,898.292114 570.438354,899.714111 
	C570.068909,901.481873 568.524597,901.419067 567.217773,901.029663 
	C562.407837,899.596375 557.680054,900.594238 552.884277,901.147583 
	C549.308838,901.560181 547.814514,903.124023 547.158325,906.716431 
	C545.137695,917.778442 545.153442,928.905640 545.265259,940.065002 
	C545.281738,941.708008 546.313538,944.244324 543.511963,944.461487 
	C540.573792,944.689270 541.001038,942.041626 540.698547,940.144409 
	C539.104675,930.148376 540.359314,920.237610 541.524902,910.318726 
	C541.735596,908.525269 541.753601,906.709167 541.878418,904.601929 
	C537.936401,904.539612 535.474976,906.214172 533.837708,909.452698 
	C533.112183,910.887878 532.575500,912.820984 530.579651,912.862732 
	C528.885925,912.898132 528.091980,911.481506 527.505371,910.010315 
	C526.773499,908.174744 526.479370,906.297363 528.173767,904.970703 
	C530.747070,902.955872 534.134949,900.177979 532.044983,897.432251 
	C529.766418,894.438660 525.549377,896.688660 522.429993,898.119751 
	C516.845154,900.681946 512.384888,904.602722 509.161865,910.345520 
z"/>
<path fill="#000000" opacity="1.000000" stroke="none" 
	d="
M236.819962,523.026672 
	C236.817444,522.199036 236.815735,521.867004 236.815582,521.535034 
	C236.811340,511.461517 239.194962,509.605896 249.158722,511.637360 
	C251.278168,512.069519 251.943924,513.350647 251.953629,515.106445 
	C252.027130,528.384827 252.034393,541.663574 252.052643,554.942200 
	C252.056000,557.388794 250.696579,558.543335 248.357071,558.716003 
	C247.695343,558.764832 247.033905,558.821655 246.371292,558.853943 
	C237.053101,559.307861 236.822906,559.089050 236.824966,549.916199 
	C236.826950,541.118225 236.822906,532.320312 236.819962,523.026672 
z"/>
<path fill="#000000" opacity="1.000000" stroke="none" 
	d="
M652.327881,931.288574 
	C652.203979,930.820618 652.143433,930.541077 652.212830,930.503906 
	C660.306946,926.164368 658.513367,918.007568 659.753845,911.022522 
	C660.189514,908.569580 660.568176,906.099731 661.158020,903.682861 
	C661.620300,901.788513 661.992004,899.390320 664.905396,900.263794 
	C667.380554,901.006042 667.357178,903.041382 666.999634,905.169189 
	C666.072693,910.685791 665.202881,916.211914 664.289185,921.864380 
	C673.066040,921.060547 674.747437,919.603638 675.946960,912.017212 
	C676.931458,905.790833 677.786560,899.543396 678.821777,893.325745 
	C679.209412,890.996948 679.082520,887.581970 682.659363,888.139587 
	C686.223755,888.695251 685.158203,891.682129 684.680847,894.169678 
	C683.555176,900.036377 682.540039,905.924377 681.498596,911.807007 
	C680.981995,914.725037 681.259583,917.386841 685.194580,919.251587 
	C680.204529,920.670532 680.401794,923.968384 680.146423,927.336121 
	C679.567383,934.972717 679.096375,942.595947 679.415588,950.257935 
	C679.480774,951.823730 679.980408,953.928284 677.459412,954.065186 
	C674.929199,954.202515 673.930176,952.435486 673.846497,950.211243 
	C673.640015,944.724487 673.503479,939.231323 674.257812,933.765869 
	C674.733093,930.322388 674.942322,926.883850 674.393921,923.427185 
	C665.960205,924.379883 663.796692,926.473083 663.422424,934.058655 
	C663.283203,936.880920 663.430359,939.716187 663.360779,942.543396 
	C663.317322,944.310059 663.707642,946.693542 661.151978,946.818054 
	C658.546814,946.944946 658.038269,944.579651 657.944946,942.578125 
	C657.775696,938.948059 657.896973,935.304443 657.896973,931.830200 
	C655.776917,930.922241 654.071472,933.739746 652.327881,931.288574 
z"/>
<path fill="#000000" opacity="1.000000" stroke="none" 
	d="
M566.710327,539.998962 
	C566.711121,531.685242 566.789917,523.870056 566.676331,516.057678 
	C566.630310,512.892883 567.809265,511.599518 571.049011,511.629272 
	C583.444031,511.743073 581.204163,510.865845 581.360718,521.536499 
	C581.516785,532.174561 581.292786,542.818176 581.443298,553.456360 
	C581.494202,557.056458 580.291260,558.426392 576.576172,558.478027 
	C566.703186,558.615234 566.705444,558.761353 566.709717,548.977783 
	C566.710999,546.151428 566.710632,543.325012 566.710327,539.998962 
z"/>
<path fill="#000000" opacity="1.000000" stroke="none" 
	d="
M266.950867,492.899231 
	C267.347809,497.709137 265.241180,499.204956 261.024750,499.143555 
	C249.869110,498.981110 238.706589,498.927826 227.552948,499.145477 
	C222.115097,499.251587 221.903595,496.069214 221.825928,492.023773 
	C221.744522,487.781158 222.424759,484.956787 227.681610,485.061249 
	C238.335510,485.272949 248.997009,485.081238 259.655273,485.101044 
	C266.632782,485.114014 266.844269,485.362915 266.950867,492.899231 
z"/>
<path fill="#000000" opacity="1.000000" stroke="none" 
	d="
M586.896362,485.127930 
	C587.880005,485.127350 588.380066,485.122101 588.879944,485.126953 
	C595.481567,485.191254 599.076355,491.288513 595.970337,497.145233 
	C595.132202,498.725647 593.574890,498.915253 592.104065,498.922211 
	C580.106384,498.978943 568.106995,499.073334 556.110962,498.924377 
	C550.112305,498.849884 552.113403,494.038116 551.754150,490.731445 
	C551.381348,487.299957 552.551208,485.497314 556.433411,485.510559 
	C566.425964,485.544617 576.419556,485.275757 586.896362,485.127930 
z"/>
<path fill="#000000" opacity="1.000000" stroke="none" 
	d="
M294.003326,899.804810 
	C292.214569,903.986023 290.628601,907.825012 288.889709,911.593384 
	C287.949402,913.631165 286.604523,915.757141 283.975372,914.129395 
	C281.564758,912.636963 283.631470,910.888916 284.386108,909.437927 
	C286.735352,904.920959 289.141327,900.447754 289.919678,894.667603 
	C286.102814,895.715454 284.395721,898.210632 282.708588,900.510742 
	C275.697815,910.068298 271.249756,920.767944 269.593506,932.486694 
	C268.938446,937.121460 268.952850,942.993896 273.586639,944.914917 
	C277.954590,946.725830 281.975372,942.655518 284.671234,939.011780 
	C287.505829,935.180420 290.293945,931.339172 293.834412,927.577209 
	C294.878204,929.642273 294.234039,931.470093 293.609131,933.265625 
	C291.636505,938.933777 288.166199,943.559937 283.377533,947.097168 
	C277.173767,951.679688 270.338745,950.137878 266.497711,943.425171 
	C264.194122,939.399414 263.187439,934.968628 263.913849,930.435364 
	C266.033295,917.208557 270.922821,905.163818 280.003662,895.079407 
	C281.108063,893.853027 282.330353,892.660828 283.700073,891.760254 
	C286.633148,889.831665 289.726196,888.866516 292.931152,891.316711 
	C295.965820,893.636719 295.255249,896.501587 294.003326,899.804810 
z"/>
<path fill="#000000" opacity="1.000000" stroke="none" 
	d="
M382.602661,937.056030 
	C377.554810,936.553040 376.028381,933.524597 376.674927,929.356018 
	C377.465363,924.259460 378.192963,918.886841 384.825714,917.825195 
	C386.863617,917.498901 387.271027,915.962158 387.718201,914.269470 
	C389.377228,907.989563 391.583893,901.907654 394.845490,896.261292 
	C396.046326,894.182495 397.601807,892.067383 400.324402,892.982422 
	C403.355530,894.001099 402.476929,896.872925 402.056488,898.994141 
	C400.163818,908.543152 395.759705,917.149170 391.559601,925.815369 
	C390.064819,928.899719 389.706024,931.777039 392.597046,934.537354 
	C396.631592,932.887024 396.963287,928.070068 400.171539,925.627686 
	C400.751678,928.935974 397.544434,936.354309 395.067291,937.686584 
	C391.326599,939.698547 389.397552,936.301086 386.802612,934.671570 
	C385.484344,935.471924 384.229553,936.233643 382.602661,937.056030 
M382.020203,926.698364 
	C381.295654,928.719971 380.777069,930.741821 381.908478,933.162964 
	C386.498657,930.279175 385.984009,926.346985 385.360870,922.122559 
	C383.060211,922.732971 382.960846,924.591187 382.020203,926.698364 
M395.878845,909.430786 
	C397.023438,905.866760 399.335693,902.675232 399.434143,897.862854 
	C395.692963,904.080872 394.165405,910.190491 393.204315,916.532104 
	C394.018677,914.405762 394.833008,912.279358 395.878845,909.430786 
z"/>
<path fill="#000000" opacity="1.000000" stroke="none" 
	d="
M598.014526,901.947266 
	C601.528564,901.186523 601.657349,898.421082 602.346130,896.088867 
	C602.863037,894.338562 603.263855,892.552673 603.678772,890.773926 
	C603.985657,889.458435 604.717102,888.685974 606.120239,888.853394 
	C607.673035,889.038513 608.580933,889.993713 608.446716,891.544434 
	C608.263916,893.655640 607.862549,895.747925 607.448303,898.575623 
	C612.317566,898.442017 616.937439,898.809387 621.074951,896.738770 
	C622.933289,895.808777 624.465698,895.557495 626.207764,896.135498 
	C627.848511,896.679932 629.417297,897.710632 628.817444,899.742737 
	C628.245850,901.679260 626.560364,901.264526 625.066956,900.851257 
	C619.897766,899.420776 614.850647,900.797424 609.776245,901.523010 
	C607.272156,901.881104 606.059631,903.464233 605.696228,905.855042 
	C603.994934,917.045898 602.949585,928.279785 603.558411,939.614258 
	C603.659607,941.497437 604.972961,944.099426 602.031799,944.498474 
	C598.976990,944.912964 598.874207,942.016785 598.828857,939.947205 
	C598.592224,929.147278 598.452332,918.342285 599.963562,907.599915 
	C600.097046,906.651428 600.622925,905.662781 599.546570,904.537903 
	C596.242493,905.055725 593.208191,906.776611 590.023804,908.074036 
	C588.709534,908.609558 587.118469,909.712708 586.128601,907.753906 
	C585.126160,905.770264 586.710815,904.913025 588.070435,903.813293 
	C591.010437,901.435059 594.598999,903.329346 598.014526,901.947266 
z"/>
<path fill="#000000" opacity="1.000000" stroke="none" 
	d="
M348.572937,901.767700 
	C351.069275,903.390869 349.757690,905.221436 349.270691,906.840332 
	C347.398987,913.062866 346.594940,919.443237 345.771027,926.269348 
	C350.995911,925.416077 354.897186,920.078064 360.501923,923.143005 
	C355.145721,924.709351 350.580292,927.262329 347.203247,931.720154 
	C353.935303,936.405457 355.249847,946.656555 350.037506,953.104614 
	C347.497162,956.247131 344.840912,955.169739 342.983276,952.656982 
	C339.656067,948.156372 341.273895,941.928162 338.106018,937.267944 
	C342.115326,931.408936 340.431488,924.358398 342.107605,917.995605 
	C343.246216,913.673279 343.840942,909.206970 344.658813,904.801270 
	C345.028870,902.807861 345.750488,901.256226 348.572937,901.767700 
M348.190033,948.756470 
	C348.695221,945.547180 349.383484,942.351257 349.619293,939.122314 
	C349.719543,937.749451 349.026154,935.973694 347.131989,936.035889 
	C345.035492,936.104614 344.508942,937.629456 344.699066,939.527100 
	C344.960846,942.140137 345.080505,944.770142 345.428223,947.370544 
	C345.585663,948.548035 345.688812,950.252502 348.190033,948.756470 
z"/>
<path fill="#000000" opacity="1.000000" stroke="none" 
	d="
M228.801453,610.661865 
	C228.967728,608.928345 230.033371,608.379272 231.195541,608.176636 
	C243.045944,606.109924 254.931747,607.306946 266.766418,607.041138 
	C266.828918,608.163635 266.961823,608.685669 266.846619,608.747803 
	C258.216919,613.404114 249.203094,617.148926 239.851639,620.097473 
	C235.624496,621.430359 232.824997,620.162781 231.322296,615.889954 
	C230.721375,614.181335 229.686890,612.625244 228.801453,610.661865 
z"/>
<path fill="#000000" opacity="1.000000" stroke="none" 
	d="
M614.854370,926.660156 
	C612.391113,922.439514 612.317688,918.438965 614.301453,914.449890 
	C615.920959,911.193237 618.280090,910.238708 621.854431,912.746338 
	C619.100403,915.898132 615.815063,918.803589 617.740234,923.730225 
	C621.206604,923.209473 622.759460,917.239929 627.523560,919.737244 
	C627.203674,922.047302 625.153809,922.180603 624.053040,923.288330 
	C621.482849,925.874573 618.902100,928.238647 623.215210,931.671082 
	C625.504761,933.493164 625.869202,936.212769 624.575073,938.925049 
	C623.107666,942.000549 621.229858,944.772522 617.510864,945.273560 
	C613.281982,945.843445 610.901550,942.433899 611.797180,937.690857 
	C612.495361,933.993286 615.708618,931.082031 614.854370,926.660156 
M616.960083,941.751892 
	C622.400513,937.067444 622.859253,934.337097 618.353943,931.814270 
	C616.933594,935.044250 613.759338,937.794495 616.960083,941.751892 
z"/>
<path fill="#000000" opacity="1.000000" stroke="none" 
	d="
M475.862183,927.330566 
	C479.109528,928.396240 478.047729,923.574219 480.830444,923.702515 
	C481.405334,928.340820 476.954315,936.177490 472.951935,937.573547 
	C469.484955,938.782898 465.530975,936.393616 464.905121,932.355347 
	C464.052979,926.857117 466.332611,922.214600 470.032074,918.432373 
	C472.590790,915.816345 476.406097,917.299072 477.233215,920.894104 
	C477.749817,923.139526 476.971130,925.135742 475.862183,927.330566 
z"/>
<path fill="#000000" opacity="1.000000" stroke="none" 
	d="
M404.200867,935.679321 
	C401.339722,929.957458 403.154663,921.764832 407.710541,918.233276 
	C409.533173,916.820496 411.450531,916.730225 413.221588,918.098694 
	C415.527985,919.880798 415.871216,922.414185 414.588562,924.821106 
	C413.067078,927.676086 411.092896,930.289795 409.871277,933.468506 
	C412.688019,930.221985 415.504791,926.975464 418.321533,923.729004 
	C418.696503,923.972229 419.071442,924.215454 419.446411,924.458679 
	C417.489655,928.638428 416.404968,933.292358 412.597595,936.503540 
	C409.830688,938.837219 407.049469,938.106750 404.200867,935.679321 
z"/>
<path fill="#000000" opacity="1.000000" stroke="none" 
	d="
M731.763062,924.033752 
	C732.636841,922.375366 733.306519,921.031677 734.136963,919.796082 
	C735.692688,917.481689 737.790161,916.166443 740.461243,917.787354 
	C743.082336,919.377808 743.857544,921.991028 742.457275,924.691650 
	C740.966003,927.567993 738.993958,930.195190 736.463318,934.124512 
	C741.135193,930.717285 743.181274,926.710144 746.622375,923.945618 
	C745.424683,928.759888 744.037781,933.384094 740.028015,936.607666 
	C738.177063,938.095703 736.084290,938.237793 733.965576,937.107544 
	C731.381409,935.729065 729.948242,933.479248 730.123291,930.632874 
	C730.252625,928.531311 731.102600,926.474121 731.763062,924.033752 
z"/>
<path fill="#000000" opacity="1.000000" stroke="none" 
	d="
M702.124329,922.062866 
	C701.388367,927.121887 697.907837,930.183838 694.897278,934.525085 
	C699.925232,931.728699 701.623779,926.677185 705.851379,924.125000 
	C704.702576,928.813843 703.204895,933.305481 699.323975,936.378296 
	C695.441528,939.452393 690.365723,937.211182 689.675537,932.245789 
	C688.962158,927.113281 690.784912,922.670349 694.077087,918.922485 
	C696.906494,915.701477 699.972778,916.851074 702.124329,922.062866 
z"/>
<path fill="#000000" opacity="1.000000" stroke="none" 
	d="
M329.693542,922.525635 
	C330.523010,925.579712 331.137268,928.296509 331.712006,930.838623 
	C333.689880,931.944702 334.653229,928.811829 336.823273,930.423157 
	C337.267365,932.875427 336.073486,934.790710 333.471649,935.091553 
	C328.142670,935.707886 327.256775,931.191833 325.608429,927.077148 
	C323.471161,929.308655 322.773895,931.747009 322.193054,934.244934 
	C321.890686,935.545166 321.714050,937.039551 319.889374,936.917053 
	C318.376495,936.815552 317.412750,935.711914 317.204254,934.353577 
	C316.436035,929.349060 317.467072,924.474548 318.671844,919.654846 
	C318.922211,918.653198 320.625916,917.765930 320.938263,918.325012 
	C322.893524,921.824463 327.202881,919.735657 329.693542,922.525635 
z"/>
<path fill="#000000" opacity="1.000000" stroke="none" 
	d="
M563.734253,927.911743 
	C561.389343,928.842651 561.377808,931.538208 560.046265,933.386963 
	C559.192749,934.572266 558.637634,936.246826 556.759094,935.895752 
	C555.131470,935.591614 554.341736,934.283813 553.924622,932.756226 
	C552.452209,927.364380 556.261353,920.771301 561.803284,919.845886 
	C563.866638,919.501404 565.342834,915.485901 567.691589,918.467407 
	C569.141968,920.308472 568.125244,922.979065 568.158081,925.272827 
	C568.207947,928.751221 568.111267,932.232117 568.041260,935.711304 
	C568.035278,936.007629 567.761963,936.298645 567.331665,937.145569 
	C562.753601,935.426514 564.019226,931.444336 563.734253,927.911743 
z"/>
<path fill="#000000" opacity="1.000000" stroke="none" 
	d="
M422.583893,925.737427 
	C422.847656,923.834351 422.905792,922.313782 423.317810,920.895935 
	C424.061920,918.335022 425.347900,916.891296 427.778687,919.510681 
	C428.110413,919.868225 428.404724,920.673523 428.642609,920.645508 
	C436.679474,919.698608 435.314606,926.523254 436.621765,930.539856 
	C438.605316,931.617615 439.726196,929.400452 441.596436,930.341187 
	C442.588989,932.698120 441.317871,934.610718 439.117004,934.984070 
	C433.273560,935.975342 432.274475,931.245605 431.028381,926.577881 
	C428.675262,928.929565 427.959900,931.423340 427.306488,933.930115 
	C426.976685,935.195435 427.010315,936.860779 425.240845,936.835632 
	C423.313507,936.808228 422.141663,935.373962 422.083954,933.589478 
	C422.004150,931.122559 422.365417,928.641357 422.583893,925.737427 
z"/>
<path fill="#000000" opacity="1.000000" stroke="none" 
	d="
M578.191040,937.583130 
	C576.638000,937.200928 575.357117,936.529602 575.382080,935.333374 
	C575.495850,929.876221 575.484009,924.381897 576.878723,919.047729 
	C577.299438,917.438965 578.554138,917.344910 580.074036,917.697632 
	C584.148560,918.643127 587.452759,921.576965 591.689636,922.117554 
	C592.086365,922.168152 592.652954,923.101074 592.650696,923.622192 
	C592.645264,924.852234 591.622559,925.157776 590.579102,925.295959 
	C588.210510,925.609619 586.578857,923.897400 584.351990,922.982361 
	C581.593140,925.838013 581.089539,929.629395 580.220825,933.263306 
	C579.857300,934.784241 580.590515,936.723328 578.191040,937.583130 
z"/>
<path fill="#000000" opacity="1.000000" stroke="none" 
	d="
M719.333008,919.560791 
	C721.332397,921.633789 723.703674,922.110291 726.175293,922.307434 
	C724.716370,926.187988 724.293579,926.219604 717.859009,923.085693 
	C714.329712,927.076843 714.228760,932.382202 712.823853,937.418884 
	C709.952271,937.531555 708.685791,936.032593 708.839233,933.554810 
	C709.115723,929.090210 709.572510,924.627625 710.188538,920.196838 
	C710.517700,917.829407 711.995239,916.348267 714.340515,918.094177 
	C715.850281,919.218323 717.577576,918.653015 719.333008,919.560791 
z"/>
<path fill="#000000" opacity="1.000000" stroke="none" 
	d="
M310.656738,923.716553 
	C312.111633,928.268555 310.163666,931.614746 307.646729,934.549988 
	C304.610596,938.090637 299.461151,937.063416 298.124237,932.631653 
	C296.845917,928.394104 298.527588,924.490234 301.655060,921.839233 
	C304.652832,919.298035 307.880157,920.630615 310.656738,923.716553 
M306.248260,928.850525 
	C306.573364,927.310181 307.537720,925.818970 306.532135,923.831421 
	C303.346558,925.824402 302.116486,928.434631 302.609039,932.002808 
	C304.856628,932.302246 305.346252,930.801941 306.248260,928.850525 
z"/>
<path fill="#000000" opacity="1.000000" stroke="none" 
	d="
M450.447479,928.305664 
	C450.364716,929.795166 449.993011,930.989563 451.225739,932.241516 
	C456.758667,931.553894 457.673615,924.734558 462.548553,922.952881 
	C462.644958,927.946594 458.691986,934.161438 454.611267,935.679138 
	C453.135864,936.227905 451.707367,936.277710 450.251831,935.666687 
	C447.339996,934.444519 445.642975,932.251160 445.844208,929.108459 
	C446.068939,925.599060 446.788330,922.017029 450.146973,920.088623 
	C451.730621,919.179260 453.713287,919.442017 454.989777,921.755371 
	C453.024475,923.422058 451.156158,925.280334 450.447479,928.305664 
z"/>
<path fill="#000000" opacity="1.000000" stroke="none" 
	d="
M363.608398,919.701843 
	C366.854004,918.014343 367.332092,919.757812 367.325317,922.158508 
	C367.317169,925.055420 366.711365,928.009644 367.757416,931.069824 
	C371.139862,929.223145 370.298676,924.955627 373.241882,923.300903 
	C375.698517,926.755981 372.686310,936.179871 368.887268,936.853271 
	C366.062622,937.354004 364.519623,935.431702 363.664764,933.168640 
	C362.035095,928.854248 362.088013,924.414612 363.608398,919.701843 
z"/>
<path fill="#000000" opacity="1.000000" stroke="none" 
	d="
M575.836060,610.655640 
	C578.704041,609.256592 580.785767,606.316528 585.228027,608.149475 
	C580.675354,611.127380 576.821045,613.457092 571.878906,614.317200 
	C572.401306,611.899963 574.418579,611.891052 575.836060,610.655640 
z"/>
<path fill="#000000" opacity="1.000000" stroke="none" 
	d="
M752.165710,932.935730 
	C755.208984,933.400146 757.125061,934.527954 755.729614,937.606750 
	C754.991211,939.235962 753.379333,939.639343 751.985046,938.486328 
	C750.012512,936.855164 748.677856,934.932129 752.165710,932.935730 
z"/>
<path fill="#000000" opacity="1.000000" stroke="none" 
	d="
M752.005188,739.010193 
	C754.345642,735.948303 757.603577,734.693054 761.235596,734.159302 
	C759.085144,737.029480 755.943909,738.065186 752.354248,738.974976 
	C751.974976,738.975586 751.996216,738.997925 752.005188,739.010193 
z"/>
<path fill="#000000" opacity="1.000000" stroke="none" 
	d="
M368.400360,913.809082 
	C368.225037,915.491821 368.178589,916.998413 366.150177,916.507935 
	C365.078033,916.248718 364.514587,915.369202 364.316467,914.354492 
	C364.070465,913.094482 364.454529,911.961853 365.755951,911.549133 
	C367.369751,911.037231 368.302490,911.748657 368.400360,913.809082 
z"/>
<path fill="#000000" opacity="1.000000" stroke="none" 
	d="
M717.081177,319.096405 
	C713.118713,327.552124 711.224548,336.084015 711.262024,345.056702 
	C711.299072,353.917236 713.538269,362.414337 716.150757,371.795319 
	C700.939697,371.514526 690.826965,378.933380 683.610657,391.541565 
	C675.889160,373.147919 676.586975,355.137146 684.172058,337.432190 
	C694.015137,314.456635 710.965698,299.583801 735.868530,294.185516 
	C728.810913,301.799469 721.779907,309.344177 717.081177,319.096405 
z"/>
<path fill="#000000" opacity="1.000000" stroke="none" 
	d="
M237.935211,308.943359 
	C225.228378,326.444092 223.367874,345.289581 229.105927,365.313721 
	C230.925766,371.664520 230.868500,371.657135 224.503952,372.279480 
	C215.052200,373.203705 208.097931,378.196655 202.704590,385.743500 
	C201.370819,387.609802 200.598434,389.908722 197.736542,391.950256 
	C190.277252,372.837952 191.186768,354.399658 199.276917,336.338318 
	C209.284775,313.995728 225.999023,299.426178 250.326630,294.278992 
	C246.620483,299.450623 241.746826,303.503723 237.935211,308.943359 
z"/>
</svg>